<svg width="93" height="93" viewBox="0 0 93 93" fill="none" xmlns="http://www.w3.org/2000/svg">
<path d="M62.2841 40.4505C65.167 37.5398 65.8881 33.5321 63.8918 31.5166C61.8955 29.501 57.9262 30.2292 55.0433 33.1399C52.3165 35.8931 51.5251 39.6267 53.1368 41.7285L49.3739 45.5277L48.6123 44.7588L30.6287 62.9157L32.7923 65.1002L50.776 46.9431L50.0145 46.1743L53.7774 42.3751C55.8593 44.0025 59.5572 43.2036 62.2841 40.4505ZM49.4411 46.9976L32.8464 63.7523L31.964 62.8614L48.5587 46.1067L49.4411 46.9976ZM54.1298 41.3727C52.4869 39.7139 53.1842 36.3108 55.6841 33.7867C58.1841 31.2627 61.5547 30.5586 63.1977 32.2174C64.8407 33.8763 64.1435 37.2795 61.6435 39.8036C59.1436 42.3276 55.7729 43.0316 54.1298 41.3727Z" fill="#242424"/>
<path d="M38.2661 33.1371C35.3872 30.2224 31.4233 29.4933 29.4298 31.5116C27.4362 33.5299 28.1565 37.543 31.0354 40.4577C33.7585 43.2146 37.4513 44.0148 39.5302 42.3853L43.2878 46.1897L42.5273 46.9596L60.4859 65.1415L62.6465 62.954L44.6878 44.7721L43.9274 45.5419L40.1697 41.7375C41.7793 39.6327 40.9892 35.894 38.2661 33.1371ZM44.7417 46.1217L61.3134 62.8994L60.4322 63.7915L43.8606 47.0138L44.7417 46.1217ZM39.1782 41.3812C37.5375 43.0423 34.1716 42.3373 31.6751 39.8098C29.1786 37.2823 28.4823 33.8745 30.123 32.2134C31.7638 30.5522 35.1298 31.2572 37.6262 33.7847C40.1227 36.3122 40.819 39.7201 39.1782 41.3812Z" fill="#242424"/>
<path d="M45.9289 7.72162C45.701 7.72162 45.4446 7.70938 45.1597 7.68491C45.0457 7.67675 44.9074 7.66859 44.7446 7.66043C44.5818 7.65227 44.3986 7.6482 44.1951 7.6482L43.2916 7.66043C43.1451 7.66859 42.9376 7.67267 42.669 7.67267C42.6527 7.67267 42.6445 7.6482 42.6445 7.59925C42.6445 7.5503 42.6527 7.52582 42.669 7.52582C42.9213 7.52582 43.1044 7.50543 43.2184 7.46464C43.3323 7.42385 43.4097 7.34635 43.4504 7.23213C43.4992 7.10976 43.5195 6.92621 43.5114 6.68146V1.01568C43.4951 0.770938 43.4626 0.591461 43.4137 0.477248C43.373 0.363034 43.2957 0.285532 43.1817 0.244742C43.0678 0.195794 42.8969 0.17132 42.669 0.17132C42.6527 0.17132 42.6445 0.146845 42.6445 0.0978971C42.6445 0.0489488 42.6527 0.0244746 42.669 0.0244746L43.2916 0.0367116C43.6498 0.0530275 43.9428 0.0611855 44.1707 0.0611855C44.4393 0.0611855 44.7079 0.0489485 44.9765 0.0244746C45.3184 0.00815821 45.5707 0 45.7335 0C46.5882 0 47.3452 0.159083 48.0045 0.477248C48.6638 0.787255 49.1766 1.22371 49.5429 1.78662C49.9092 2.34953 50.0923 2.99401 50.0923 3.72008C50.0923 4.50326 49.897 5.20077 49.5063 5.81263C49.1237 6.41633 48.615 6.88542 47.9801 7.2199C47.3452 7.55438 46.6614 7.72162 45.9289 7.72162ZM45.819 7.47688C46.3888 7.47688 46.8853 7.34227 47.3085 7.07305C47.7318 6.79568 48.0574 6.39593 48.2853 5.87381C48.5214 5.3517 48.6394 4.72353 48.6394 3.9893C48.6394 3.36113 48.5376 2.76559 48.3341 2.20268C48.1307 1.63162 47.8051 1.16253 47.3574 0.795412C46.9178 0.428299 46.3562 0.244742 45.6725 0.244742C45.3469 0.244742 45.1271 0.305928 45.0132 0.428299C44.8992 0.542512 44.8422 0.746464 44.8422 1.04015V6.54685C44.8504 6.88134 44.9196 7.122 45.0498 7.26884C45.1882 7.40753 45.4446 7.47688 45.819 7.47688Z" fill="#BB2339"/>
<path d="M60.5738 8.19164C60.594 8.18058 60.6158 8.1785 60.6392 8.18539C60.6626 8.19229 60.6838 8.20701 60.7026 8.22956C60.7238 8.24428 60.7293 8.25441 60.7192 8.25994C60.492 8.74575 60.2901 9.29002 60.1136 9.89275C60.0952 9.95537 60.0697 9.99888 60.0371 10.0233C60.0068 10.0399 59.9565 10.0378 59.8862 10.0172L54.5443 8.44505C54.513 8.43586 54.5043 8.40778 54.518 8.36081C54.5318 8.31385 54.5504 8.29381 54.5738 8.30071C54.8081 8.36966 54.9818 8.3995 55.0948 8.39024C55.2156 8.38328 55.3076 8.32961 55.371 8.22921C55.4421 8.13112 55.5133 7.96074 55.5843 7.71809L57.177 2.28181C57.2458 2.04698 57.2767 1.86903 57.2697 1.74795C57.2628 1.62687 57.2104 1.53067 57.1125 1.45936C57.0169 1.38021 56.8598 1.30846 56.6411 1.24411C56.6177 1.23721 56.609 1.20913 56.6149 1.15987C56.6287 1.11291 56.6434 1.09172 56.659 1.09632L61.7081 2.58223C61.7706 2.60062 61.7915 2.64504 61.7709 2.71548L61.3402 4.27225C61.3334 4.29573 61.3065 4.30058 61.2596 4.28679C61.2206 4.27529 61.1994 4.26057 61.1962 4.24262C61.1919 3.7652 61.0507 3.34953 60.7726 2.99562C60.5046 2.63618 60.1325 2.38636 59.6561 2.24616L59.4335 2.18065C59.1914 2.1094 59.0099 2.07726 58.8891 2.08422C58.7784 2.08565 58.6937 2.12873 58.6349 2.21347C58.5762 2.29821 58.5108 2.44902 58.4387 2.66589L57.737 5.06114L59.2014 5.49209C59.5997 5.60931 59.9132 5.62505 60.1419 5.53931C60.3706 5.45358 60.5309 5.25416 60.6226 4.94105C60.6318 4.90974 60.6637 4.90213 60.7183 4.91822C60.773 4.93431 60.7946 4.96192 60.7832 5.00106L60.5822 5.64339C60.5469 5.73502 60.504 5.86695 60.4536 6.03915C60.3802 6.28964 60.3291 6.47865 60.3002 6.60619L60.1262 7.24367C60.1147 7.28281 60.0855 7.29549 60.0387 7.28169C60.0152 7.2748 59.9929 7.26399 59.9718 7.24927C59.9608 7.22902 59.9576 7.21106 59.9621 7.19541C60.0608 6.85882 60.0298 6.57339 59.8694 6.33913C59.7191 6.09934 59.4565 5.92428 59.0816 5.81395L57.6407 5.3899L56.8633 8.04346C56.7716 8.35657 56.7588 8.57388 56.825 8.69539C56.899 8.8192 57.0922 8.92707 57.4046 9.01901L57.7326 9.11554C58.2403 9.26494 58.7474 9.25688 59.254 9.09137C59.7629 8.91803 60.2028 8.61812 60.5738 8.19164Z" fill="#BB2339"/>
<path d="M65.1789 12.4735C65.1652 12.4647 65.1716 12.4397 65.198 12.3985C65.2244 12.3573 65.2444 12.3412 65.2581 12.35C65.4704 12.4867 65.6354 12.5688 65.7533 12.5962C65.8712 12.6237 65.9746 12.5982 66.0636 12.5197C66.1595 12.4457 66.2756 12.3023 66.412 12.0895L69.4682 7.32318C69.6003 7.11729 69.68 6.95528 69.7073 6.83714C69.7347 6.71901 69.7115 6.61191 69.6376 6.51585C69.5681 6.41292 69.4375 6.29971 69.2458 6.17621C69.2253 6.16298 69.2282 6.13578 69.2546 6.0946C69.281 6.05342 69.3045 6.03945 69.325 6.05268L69.8114 6.38054C70.1039 6.58833 70.3426 6.75177 70.5275 6.87085C70.7124 6.98994 70.9667 7.14406 71.2905 7.33322L71.8209 7.66034C71.8346 7.66916 71.8283 7.69416 71.8019 7.73534C71.7755 7.77651 71.7554 7.79269 71.7417 7.78387C71.5295 7.64714 71.3622 7.56849 71.2399 7.54792C71.1289 7.5249 71.0255 7.5504 70.9296 7.62443C70.8406 7.70287 70.7245 7.84627 70.5812 8.05461L67.558 12.7695C67.3864 13.0372 67.3096 13.2398 67.3277 13.3776C67.3502 13.5085 67.4676 13.6423 67.6799 13.779L67.9675 13.9642C68.5221 14.3215 69.0636 14.4957 69.5917 14.4868C70.1312 14.4754 70.6833 14.2783 71.2481 13.8954C71.2706 13.8905 71.2921 13.8947 71.3127 13.9079C71.3332 13.9211 71.3494 13.9412 71.3611 13.9682C71.3773 13.9883 71.3809 14.0052 71.3721 14.0189C70.9565 14.5464 70.5925 15.0538 70.28 15.541C70.214 15.644 70.1296 15.6624 70.0269 15.5962L65.1789 12.4735Z" fill="#BB2339"/>
<path d="M74.82 20.1397C74.8093 20.1274 74.8225 20.1052 74.8594 20.0732C74.8963 20.0411 74.9201 20.0313 74.9307 20.0436C75.096 20.2347 75.2286 20.357 75.3287 20.4104C75.434 20.47 75.5431 20.4779 75.6559 20.4339C75.7687 20.3899 75.9204 20.2851 76.1111 20.1195L80.3833 16.4092C80.5617 16.2543 80.678 16.1209 80.7321 16.0092C80.7978 15.8982 80.8086 15.7862 80.7648 15.6732C80.7271 15.5548 80.6309 15.4062 80.4763 15.2274C80.4657 15.2151 80.4761 15.1898 80.5077 15.1516C80.5446 15.1195 80.5711 15.1127 80.5871 15.1312L80.9776 15.6017C81.1998 15.8836 81.3829 16.1078 81.5268 16.2743C81.6867 16.4593 81.8954 16.6882 82.1529 16.9612L82.5539 17.4063C82.5646 17.4186 82.5515 17.4408 82.5146 17.4729C82.4777 17.5049 82.4539 17.5148 82.4432 17.5025C82.2833 17.3175 82.1476 17.1979 82.0361 17.1436C81.9245 17.0894 81.8124 17.0842 81.6996 17.1282C81.5922 17.1783 81.4404 17.2831 81.2444 17.4426L76.9906 21.1368C76.8061 21.2971 76.684 21.43 76.6246 21.5357C76.5704 21.6474 76.5622 21.7625 76.5999 21.8809C76.6438 21.9939 76.743 22.1398 76.8976 22.3186C76.9083 22.331 76.8951 22.3532 76.8582 22.3852C76.8213 22.4173 76.7975 22.4271 76.7869 22.4148C76.6216 22.2237 76.4915 22.0669 76.3963 21.9444L75.8219 21.2612L75.245 20.6126C75.1376 20.5008 74.9959 20.3432 74.82 20.1397Z" fill="#BB2339"/>
<path d="M81.7379 31.0418C81.3626 30.2181 81.1954 29.4291 81.2366 28.6749C81.281 27.928 81.5082 27.268 81.9182 26.6947C82.3355 26.1181 82.8921 25.6705 83.5881 25.3519C84.2619 25.0435 84.9465 24.9454 85.6418 25.0576C86.3447 25.1664 86.9845 25.461 87.5613 25.9413C88.1455 26.4183 88.61 27.0353 88.9549 27.7922C89.1139 28.141 89.2429 28.5124 89.3419 28.9066C89.4484 29.2973 89.5045 29.6169 89.5103 29.8653C89.5078 29.9383 89.495 29.9889 89.4722 30.0173C89.4493 30.0457 89.3989 30.0823 89.3208 30.127L87.9065 30.882C87.8769 30.8955 87.8499 30.8854 87.8256 30.8517C87.8013 30.818 87.7969 30.7886 87.8123 30.7636C88.2567 30.2463 88.538 29.705 88.6562 29.1397C88.7818 28.571 88.7179 28.0083 88.4643 27.4518C88.1363 26.732 87.6255 26.2886 86.9321 26.1217C86.246 25.9514 85.4661 26.0663 84.5924 26.4662C83.8298 26.8152 83.2169 27.2572 82.7537 27.7921C82.2905 28.327 82.0046 28.8973 81.8958 29.5031C81.7905 30.1164 81.8714 30.7161 82.1385 31.3024C82.2602 31.5695 82.3902 31.7566 82.5285 31.8637C82.6742 31.9675 82.8477 32.0046 83.0491 31.9752C83.2613 31.9499 83.5413 31.8576 83.8893 31.6983C84.2521 31.5322 84.4997 31.3785 84.6322 31.2372C84.7647 31.0958 84.8162 30.9242 84.7869 30.7224C84.7576 30.5206 84.6533 30.223 84.4741 29.8297C84.4538 29.7852 84.4733 29.7494 84.5325 29.7223C84.5547 29.7121 84.5749 29.7073 84.5931 29.708C84.6221 29.7127 84.64 29.7224 84.6467 29.7373C84.8904 30.3701 85.1052 30.8906 85.2911 31.2988C85.467 31.6847 85.6607 32.0803 85.8722 32.4857C85.8858 32.5154 85.8683 32.5458 85.8198 32.577C85.7714 32.6081 85.7404 32.6088 85.7269 32.5791C85.6802 32.457 85.6168 32.3964 85.5366 32.3972C85.4564 32.398 85.2979 32.4526 85.061 32.5611L84.3057 32.9068C83.9726 33.0593 83.7444 33.1772 83.6213 33.2604C83.4981 33.3437 83.4107 33.3972 83.3588 33.4209C83.3144 33.4412 83.2814 33.4474 83.2598 33.4393C83.2417 33.4387 83.215 33.4195 83.1799 33.3817C82.5398 32.5267 82.0591 31.7468 81.7379 31.0418Z" fill="#BB2339"/>
<path d="M85.4484 45.1308C85.4507 45.147 85.4277 45.1585 85.3794 45.1655C85.331 45.1725 85.3057 45.1679 85.3034 45.1517C85.2709 44.9256 85.2483 44.7393 85.2355 44.5928L85.1173 43.6826L84.9801 42.8123C84.95 42.66 84.9159 42.4506 84.8777 42.1841C84.8754 42.168 84.8978 42.1524 84.945 42.1374C84.9933 42.1304 85.0192 42.139 85.0227 42.1632C85.0586 42.4136 85.1042 42.5883 85.1596 42.6875C85.2161 42.7947 85.303 42.8564 85.4205 42.8724C85.5379 42.8885 85.7215 42.8785 85.9713 42.8425L88.7508 42.442L88.2504 38.9535L85.4708 39.3541C85.2291 39.3889 85.0548 39.4347 84.9478 39.4913C84.8419 39.556 84.7729 39.6484 84.7408 39.7684C84.7167 39.8872 84.7221 40.0678 84.7568 40.31C84.7603 40.3343 84.7379 40.3498 84.6895 40.3568C84.6412 40.3638 84.6153 40.3552 84.6118 40.3309C84.5736 40.0645 84.5481 39.858 84.5353 39.7114L84.4188 38.8134L84.2868 37.9793C84.2567 37.8271 84.2238 37.6258 84.1878 37.3755C84.1844 37.3512 84.2068 37.3356 84.2551 37.3287C84.3035 37.3217 84.3294 37.3303 84.3329 37.3546C84.3676 37.5968 84.4127 37.7675 84.468 37.8667C84.5245 37.9739 84.6115 38.0356 84.7289 38.0516C84.8475 38.0758 85.0317 38.0698 85.2814 38.0338L90.8769 37.2275C91.2164 37.1868 91.431 37.1064 91.5207 36.9864C91.6184 36.8651 91.6436 36.639 91.5961 36.3079C91.5926 36.2837 91.615 36.2681 91.6634 36.2611C91.7117 36.2542 91.7376 36.2628 91.7411 36.287L91.8124 36.8702C91.8473 37.2278 91.8803 37.5156 91.9116 37.7336C91.9429 37.9517 91.9932 38.2452 92.0626 38.6144L92.1633 39.2304C92.1656 39.2465 92.1426 39.2581 92.0943 39.265C92.046 39.272 92.0206 39.2674 92.0183 39.2513C91.9836 39.009 91.9339 38.8348 91.8693 38.7288C91.8048 38.6227 91.7092 38.5582 91.5825 38.5352C91.4651 38.5191 91.285 38.5245 91.0421 38.5513L88.5888 38.9048L89.0875 42.3811L91.5408 42.0276C91.8872 41.9776 92.1093 41.8921 92.2071 41.7708C92.306 41.6577 92.3317 41.4356 92.2842 41.1045C92.2818 41.0883 92.3043 41.0727 92.3515 41.0577C92.3998 41.0507 92.4257 41.0594 92.4292 41.0836L92.5022 41.6788C92.5371 42.0365 92.5707 42.3283 92.6032 42.5544C92.6345 42.7725 92.6836 43.058 92.7507 43.4109L92.8514 44.0269C92.8549 44.0512 92.8325 44.0668 92.7841 44.0737C92.7358 44.0807 92.7099 44.0721 92.7064 44.0478C92.6716 43.8056 92.622 43.6314 92.5574 43.5253C92.5021 43.4262 92.4151 43.3645 92.2965 43.3404C92.1779 43.3163 91.9966 43.3136 91.7526 43.3322L86.1572 44.1386C85.9235 44.1722 85.7498 44.222 85.6359 44.2879C85.5312 44.3606 85.4633 44.4611 85.4324 44.5892C85.4095 44.7161 85.4148 44.8967 85.4484 45.1308Z" fill="#BB2339"/>
<path d="M84.9539 50.2967C84.9574 50.2724 84.9833 50.2638 85.0316 50.2708C85.08 50.2777 85.103 50.2893 85.1007 50.3054C85.052 50.6446 85.0368 50.8938 85.0551 51.053C85.0722 51.2203 85.1331 51.3404 85.2378 51.4131C85.3506 51.4871 85.5278 51.5415 85.7695 51.5763L91.3649 52.3826C91.6458 52.4313 91.8363 52.4217 91.9365 52.3537C92.0447 52.2869 92.1151 52.1404 92.1475 51.9143L92.1701 51.7569C92.2095 51.4823 92.1597 51.199 92.0207 50.907C91.8897 50.6162 91.6925 50.357 91.4291 50.1295C91.1738 49.9031 90.8798 49.7453 90.5472 49.6562C90.5311 49.6539 90.5259 49.6325 90.5317 49.5922C90.5352 49.5679 90.5427 49.5443 90.5542 49.5212C90.5727 49.5074 90.5853 49.5051 90.5922 49.5143C90.8926 49.5988 91.6856 49.7749 92.9711 50.0426C92.9953 50.0461 93.0045 50.068 92.9987 50.1084C92.9952 50.1326 92.9883 50.1522 92.9779 50.1672C92.9664 50.1903 92.9526 50.2006 92.9364 50.1983C92.7673 50.1739 92.6566 50.3434 92.6045 50.7068C92.4865 51.3574 92.3568 52.1753 92.2155 53.1604C92.1518 53.6046 92.0886 54.1023 92.0259 54.6538L91.9164 55.5034C91.8782 55.7699 91.8705 55.9666 91.8934 56.0935C91.9163 56.2204 91.9859 56.3087 92.1021 56.3585C92.1239 56.3781 92.1279 56.4075 92.1141 56.4467C92.1071 56.4952 92.0881 56.513 92.0571 56.5003C91.706 56.425 91.2624 56.3364 90.726 56.2343C90.1978 56.1335 89.8404 56.0737 89.6539 56.0551C89.6298 56.0516 89.6212 56.0257 89.6281 55.9772C89.6374 55.9126 89.6581 55.8826 89.6903 55.8873C90.0207 55.9349 90.3378 55.9023 90.6418 55.7895C90.9447 55.6848 91.1998 55.5114 91.4072 55.2693C91.6135 55.0353 91.7386 54.7648 91.7826 54.458L91.8052 54.3005C91.8284 54.139 91.8251 54.019 91.7952 53.9405C91.7642 53.8701 91.7015 53.8199 91.6071 53.7898C91.5208 53.7609 91.3695 53.7267 91.1531 53.6873L85.5801 52.8966C85.3303 52.8606 85.1456 52.8587 85.0258 52.8909C84.9049 52.9311 84.8133 53.0251 84.751 53.1727C84.6887 53.3203 84.6327 53.5678 84.5829 53.915C84.5794 53.9392 84.5535 53.9478 84.5051 53.9409C84.4568 53.9339 84.4344 53.9183 84.4378 53.8941C84.4807 53.5953 84.5183 53.3617 84.5507 53.1933L84.7209 52.0928L84.8583 51.0494C84.8757 50.8706 84.9076 50.6197 84.9539 50.2967Z" fill="#BB2339"/>
<path d="M76.4451 71.0081C76.4557 70.9957 76.4795 71.0056 76.5164 71.0377C76.5534 71.0697 76.5665 71.0919 76.5558 71.1042C76.3906 71.2954 76.2887 71.4444 76.2501 71.5512C76.2063 71.6642 76.2141 71.7736 76.2736 71.8792C76.333 71.9848 76.4581 72.1204 76.6488 72.286L80.921 75.9963C81.0994 76.1513 81.2477 76.2476 81.3658 76.2854C81.4847 76.3348 81.5969 76.3296 81.7023 76.27C81.8138 76.2157 81.9468 76.0992 82.1014 75.9204C82.1121 75.9081 82.1385 75.9149 82.1808 75.9407C82.2177 75.9728 82.2281 75.9981 82.2121 76.0166L81.8031 76.471C81.5563 76.7316 81.3609 76.9451 81.217 77.1116C81.0571 77.2965 80.8607 77.5362 80.6278 77.8305L80.2453 78.2916C80.2346 78.304 80.2108 78.2941 80.1739 78.262C80.137 78.23 80.1239 78.2078 80.1345 78.1955C80.2944 78.0105 80.3933 77.8588 80.431 77.7405C80.4687 77.6221 80.4578 77.5101 80.3983 77.4045C80.3335 77.305 80.2085 77.1694 80.0231 76.9976L75.7693 73.3033C75.5848 73.1431 75.4361 73.041 75.3233 72.997C75.2052 72.9592 75.0904 72.9674 74.9789 73.0217C74.8735 73.0813 74.7435 73.2005 74.5889 73.3793C74.5783 73.3916 74.5545 73.3818 74.5176 73.3497C74.4807 73.3176 74.4675 73.2955 74.4782 73.2831C74.6434 73.092 74.7798 72.9405 74.8872 72.8287L75.4801 72.1616L76.0385 71.497C76.1337 71.3745 76.2692 71.2115 76.4451 71.0081Z" fill="#BB2339"/>
<path d="M67.712 88.0101C67.6914 88.0233 67.6679 88.0093 67.6415 87.9682C67.6151 87.927 67.6122 87.8998 67.6327 87.8865C67.9135 87.7057 68.0813 87.4619 68.1361 87.155C68.1841 86.8526 68.1059 86.5345 67.9015 86.2006L64.5057 80.8821C64.4856 80.8659 64.4917 80.8377 64.524 80.7975C64.545 80.7549 64.5795 80.7181 64.6275 80.6872C64.6959 80.6431 64.7537 80.635 64.8006 80.663L72.5763 83.3058L69.9396 79.1711C69.7353 78.8373 69.4859 78.6294 69.1915 78.5475C68.8971 78.4656 68.6061 78.5173 68.3185 78.7025C68.2911 78.7202 68.2642 78.7084 68.2378 78.6672C68.2114 78.6261 68.2119 78.5967 68.2393 78.579C68.431 78.4555 68.5804 78.3641 68.6875 78.3048L69.3412 77.8983L69.9509 77.4911C70.0629 77.4092 70.225 77.2999 70.4373 77.1632C70.4647 77.1456 70.4916 77.1573 70.518 77.1985C70.5444 77.2397 70.5439 77.2691 70.5165 77.2867C70.2289 77.472 70.0646 77.7136 70.0234 78.0116C69.9755 78.3141 70.0537 78.6322 70.2581 78.966L73.1456 83.4919C73.485 83.5837 73.762 83.6234 73.9767 83.6112C74.1846 83.6034 74.3707 83.5465 74.535 83.4407C74.5487 83.4318 74.5688 83.448 74.5952 83.4892C74.6216 83.5304 74.6279 83.5554 74.6142 83.5642L74.053 83.9112C73.939 83.9749 73.7896 84.0663 73.6047 84.1854C73.4198 84.3044 73.268 84.4071 73.1491 84.4934C73.0234 84.584 72.94 84.6426 72.8989 84.6691C72.8442 84.7043 72.7943 84.7171 72.7493 84.7073C72.6974 84.7019 72.6268 84.6747 72.5373 84.6256C72.3759 84.555 72.2211 84.4947 72.0729 84.4447L65.9066 82.3653L68.2096 86.0022C68.414 86.336 68.6634 86.5439 68.9578 86.6258C69.2454 86.7121 69.5364 86.6604 69.8308 86.4707C69.8582 86.4531 69.8851 86.4649 69.9115 86.506C69.9379 86.5472 69.9374 86.5766 69.91 86.5943L69.5028 86.842C69.2201 87.0047 68.9863 87.1456 68.8014 87.2647C68.6577 87.3573 68.4601 87.4943 68.2086 87.6756L67.712 88.0101Z" fill="#BB2339"/>
<path d="M43.4645 87.2973C43.4482 87.3136 43.4279 87.3217 43.4035 87.3217C43.379 87.3217 43.3546 87.3136 43.3302 87.2973C43.3058 87.2891 43.2976 87.2809 43.3058 87.2728C43.3872 86.7425 43.4279 86.1633 43.4279 85.5351C43.4279 85.4699 43.4401 85.4209 43.4645 85.3883C43.4889 85.3638 43.5378 85.3516 43.611 85.3516H49.1785C49.2111 85.3516 49.2274 85.376 49.2274 85.425C49.2274 85.4739 49.2152 85.4984 49.1908 85.4984C48.9466 85.4984 48.7716 85.5188 48.6657 85.5596C48.5518 85.6004 48.4785 85.6779 48.446 85.7921C48.4053 85.9063 48.3849 86.0899 48.3849 86.3428V92.0086C48.3849 92.2533 48.4053 92.4328 48.446 92.547C48.4867 92.6612 48.564 92.7387 48.678 92.7795C48.7919 92.8284 48.9628 92.8529 49.1908 92.8529C49.2152 92.8529 49.2314 92.8774 49.2396 92.9263C49.2396 92.9753 49.2314 92.9998 49.2152 92.9998H43.9529C43.8878 92.9998 43.8552 92.963 43.8552 92.8896L43.8308 91.2743C43.8308 91.2499 43.8552 91.2376 43.9041 91.2376C43.9447 91.2376 43.9692 91.2458 43.9773 91.2621C44.1157 91.7189 44.368 92.0779 44.7343 92.339C45.0924 92.6082 45.5198 92.7428 46.0163 92.7428H46.2483C46.5006 92.7428 46.6837 92.7224 46.7977 92.6816C46.9035 92.649 46.9727 92.5837 47.0053 92.4858C47.0378 92.3879 47.0582 92.2247 47.0663 91.9963V89.4999H45.5401C45.125 89.4999 44.8198 89.5734 44.6244 89.7202C44.4291 89.8671 44.3314 90.1036 44.3314 90.43C44.3314 90.4626 44.3029 90.4789 44.2459 90.4789C44.1889 90.4789 44.1604 90.4585 44.1604 90.4177L44.1727 89.7447C44.1808 89.6468 44.1849 89.5081 44.1849 89.3286C44.1849 89.0676 44.1808 88.8718 44.1727 88.7412L44.1604 88.0804C44.1604 88.0396 44.1849 88.0193 44.2337 88.0193C44.2581 88.0193 44.2825 88.0233 44.307 88.0315C44.3232 88.0478 44.3314 88.0641 44.3314 88.0804C44.3314 88.4312 44.4413 88.6964 44.661 88.8759C44.8727 89.0635 45.1738 89.1573 45.5645 89.1573H47.0663V86.3917C47.0663 86.0654 47.0175 85.8533 46.9198 85.7554C46.814 85.6575 46.5983 85.6085 46.2727 85.6085H45.9308C45.4017 85.6085 44.9174 85.7595 44.4779 86.0613C44.0384 86.3713 43.7006 86.7833 43.4645 87.2973Z" fill="#BB2339"/>
<path d="M29.141 89.8993C29.1019 89.8878 29.0893 89.8586 29.103 89.8116C29.1168 89.7647 29.1432 89.7469 29.1822 89.7584C29.4712 89.8435 29.7491 89.836 30.016 89.7359C30.275 89.6336 30.5727 89.3556 30.9092 88.902L34.8722 83.6276C34.9071 83.5954 34.9714 83.5931 35.0651 83.6206C35.1041 83.6321 35.1409 83.6514 35.1754 83.6786C35.2121 83.6979 35.2321 83.7166 35.2353 83.7345L36.2914 90.9451C36.3403 91.2995 36.4139 91.555 36.5122 91.7115C36.6083 91.8758 36.7657 91.9902 36.9844 92.0545C37.0078 92.0614 37.0126 92.0883 36.9989 92.1353C36.9851 92.1823 36.9704 92.2035 36.9548 92.1989L36.3374 92.0044C36.0608 91.906 35.8561 91.8373 35.7233 91.7982C35.4266 91.7109 35.0884 91.6198 34.709 91.5252L34.1315 91.368C34.0925 91.3565 34.0798 91.3273 34.0936 91.2803C34.1073 91.2333 34.1337 91.2156 34.1728 91.2271C34.6101 91.3558 34.8644 91.2988 34.9355 91.0562C34.9607 90.9701 34.9638 90.8435 34.9449 90.6764L34.1632 85.179L31.3089 89.0579C31.196 89.2117 31.1212 89.3512 31.0845 89.4765C31.0134 89.7191 31.0482 89.9334 31.1888 90.1194C31.3272 90.3131 31.5448 90.4537 31.8415 90.541C31.8728 90.5502 31.8815 90.5783 31.8677 90.6253C31.854 90.6722 31.8315 90.6911 31.8003 90.6819L31.2062 90.4943C30.8672 90.3776 30.5571 90.2778 30.2759 90.1951C30.1197 90.1491 29.9222 90.0995 29.6833 90.0462L29.141 89.8993Z" fill="#BB2339"/>
<path d="M21.9238 79.262C21.9013 79.2669 21.8798 79.2627 21.8593 79.2495C21.8387 79.2362 21.8226 79.2161 21.8108 79.1892C21.7947 79.1691 21.7922 79.1578 21.8035 79.1554C22.158 78.7534 22.5047 78.2882 22.8435 77.7597C22.8787 77.7048 22.9154 77.6702 22.9536 77.656C22.9873 77.6487 23.035 77.6648 23.0966 77.7045L27.7803 80.7214C27.8077 80.739 27.8082 80.7684 27.7818 80.8096C27.7554 80.8508 27.7319 80.8648 27.7114 80.8515C27.5059 80.7192 27.3477 80.6415 27.2367 80.6185C27.1188 80.5911 27.0154 80.6166 26.9264 80.695C26.8306 80.7691 26.7144 80.9124 26.578 81.1252L23.5218 85.8916C23.3898 86.0974 23.3101 86.2595 23.2827 86.3776C23.2553 86.4957 23.2786 86.6028 23.3524 86.6989C23.4219 86.8018 23.5525 86.915 23.7442 87.0385C23.7648 87.0518 23.7652 87.0812 23.7457 87.1268C23.7193 87.1679 23.6992 87.1841 23.6855 87.1753L19.2586 84.3238C19.2038 84.2886 19.1963 84.24 19.2359 84.1783L20.0866 82.8062C20.0998 82.7856 20.127 82.7885 20.1681 82.815C20.2023 82.837 20.2185 82.8571 20.2165 82.8753C20.0865 83.3346 20.1051 83.7733 20.2724 84.1914C20.4285 84.6119 20.7154 84.9567 21.1331 85.2257L21.3282 85.3514C21.5405 85.4882 21.7056 85.5703 21.8235 85.5977C21.9301 85.6276 22.0235 85.6102 22.1037 85.5454C22.1839 85.4807 22.289 85.3545 22.4191 85.1667L23.7657 83.0667L22.4818 82.2397C22.1325 82.0147 21.8361 81.9111 21.5926 81.9288C21.349 81.9465 21.1393 82.0926 20.9632 82.3671C20.9456 82.3945 20.9129 82.3928 20.8649 82.362C20.817 82.3311 20.804 82.2985 20.826 82.2642L21.1994 81.7046C21.259 81.6266 21.3372 81.5122 21.4341 81.3612C21.5749 81.1416 21.6771 80.9747 21.7406 80.8604L22.0868 80.2979C22.1088 80.2636 22.1404 80.2597 22.1814 80.2861C22.202 80.2994 22.2203 80.316 22.2365 80.3361C22.2414 80.3587 22.2394 80.3768 22.2306 80.3905C22.0414 80.6857 21.9908 80.9682 22.0789 81.2383C22.1557 81.5108 22.3584 81.753 22.6871 81.9647L23.9505 82.7784L25.4423 80.4519C25.6183 80.1773 25.6917 79.9724 25.6623 79.8372C25.6261 79.6975 25.471 79.5394 25.1971 79.363L24.9095 79.1777C24.4644 78.891 23.9756 78.7556 23.443 78.7713C22.906 78.794 22.3996 78.9575 21.9238 79.262Z" fill="#BB2339"/>
<path d="M14.0876 68.7337C14.0716 68.7152 14.0821 68.6899 14.119 68.6579C14.1506 68.6197 14.177 68.6129 14.1983 68.6376L15.5096 70.1543C15.6375 70.3022 15.6153 70.7749 15.443 71.5722C15.2592 72.3687 14.8929 73.4586 14.3441 74.842C14.5365 74.9772 14.7232 75.1497 14.9045 75.3593C14.9311 75.3901 14.9596 75.4355 14.9899 75.4955L17.1768 73.5963C17.3605 73.4476 17.4852 73.3177 17.5508 73.2067C17.605 73.0949 17.6132 72.9799 17.5755 72.8615C17.5263 72.7423 17.4217 72.5902 17.2618 72.4053C17.2405 72.3806 17.2483 72.3522 17.2852 72.3202C17.3168 72.282 17.3432 72.2752 17.3645 72.2998C17.5458 72.5095 17.6813 72.6724 17.7711 72.7888L18.3535 73.4811L18.9624 74.1667C19.0752 74.2847 19.2222 74.4485 19.4034 74.6581C19.4247 74.6828 19.4196 74.7142 19.388 74.7525C19.3511 74.7845 19.322 74.7882 19.3007 74.7635C19.1248 74.5601 18.9788 74.4224 18.8627 74.3504C18.7406 74.2839 18.6231 74.2725 18.5103 74.3165C18.386 74.3597 18.2321 74.4556 18.0483 74.6044L13.7761 78.3147C13.5915 78.4749 13.4722 78.611 13.4181 78.7228C13.3586 78.8284 13.3535 78.9408 13.4027 79.06C13.4457 79.1845 13.5498 79.3423 13.7151 79.5335C13.7364 79.5581 13.7286 79.5865 13.6917 79.6186C13.6548 79.6506 13.6257 79.6543 13.6044 79.6296L13.1898 79.1315C12.9676 78.8495 12.7818 78.6222 12.6326 78.4496C12.4514 78.2399 12.2418 78.0225 12.004 77.7973C11.8211 77.6107 11.7031 77.4865 11.6498 77.4249C11.1114 76.8022 10.8105 76.2485 10.7469 75.7639C10.6781 75.2732 10.8251 74.8702 11.1881 74.555C11.4526 74.3253 11.7852 74.193 12.1858 74.1581C12.5811 74.117 12.9871 74.1693 13.4037 74.3148C13.7815 73.1447 14.0541 72.1956 14.2214 71.4673C14.3773 70.7382 14.4475 70.1591 14.432 69.73C14.4049 69.3001 14.2902 68.968 14.0876 68.7337ZM14.7316 75.7199C14.6861 75.6299 14.618 75.5325 14.5274 75.4277C14.1756 75.0208 13.8385 74.8115 13.5162 74.8C13.1886 74.7823 12.8156 74.9551 12.3973 75.3184C11.9605 75.6977 11.7153 76.0618 11.6615 76.4107C11.5963 76.7588 11.6703 77.0562 11.8835 77.3028C12.0274 77.4693 12.1383 77.5727 12.2162 77.6129C12.288 77.6586 12.3745 77.659 12.4758 77.6142C12.5656 77.5686 12.7147 77.4607 12.923 77.2906L14.7316 75.7199Z" fill="#BB2339"/>
<path d="M2.68863 62.6023C2.67172 62.5652 2.68548 62.5364 2.72991 62.5161C2.77433 62.4958 2.805 62.5042 2.8219 62.5413C2.94025 62.801 3.15348 63.0038 3.46159 63.1498C3.75892 63.2917 4.16731 63.3828 4.68676 63.4231L7.30412 63.5704L9.89185 62.3859C10.1214 62.2809 10.2795 62.1861 10.3663 62.1015C10.4496 62.0095 10.4828 61.8957 10.4657 61.76C10.4486 61.6244 10.3792 61.4229 10.2575 61.1558C10.244 61.1261 10.2594 61.1011 10.3038 61.0808C10.3483 61.0604 10.3772 61.0651 10.3908 61.0948C10.5091 61.3545 10.5967 61.5566 10.6535 61.701L11.0431 62.5854L11.4752 63.5042C11.5502 63.6492 11.6452 63.8479 11.7602 64.1002C11.7737 64.1299 11.7583 64.1549 11.7138 64.1753C11.6694 64.1956 11.6404 64.1909 11.6269 64.1612C11.5052 63.8941 11.3971 63.7059 11.3026 63.5967C11.2007 63.4909 11.0877 63.4394 10.9638 63.4423C10.8365 63.4378 10.6634 63.4901 10.4447 63.5992L8.01753 64.7236L6.13629 67.7237C5.94349 68.0272 5.82136 68.2894 5.76988 68.5103C5.71501 68.7237 5.72478 68.9121 5.79917 69.0753C5.81269 69.105 5.79724 69.13 5.75282 69.1503C5.71178 69.1781 5.68618 69.1808 5.67604 69.1586L5.4234 68.5747C5.30972 68.2859 5.22244 68.0747 5.16158 67.9412C5.07705 67.7556 4.94284 67.4807 4.75897 67.1165L4.48919 66.5539C4.47905 66.5316 4.48878 66.5137 4.5184 66.5001C4.54061 66.49 4.5662 66.4872 4.59518 66.4919C4.61337 66.4925 4.62584 66.5003 4.63261 66.5151C4.72052 66.7081 4.79958 66.8423 4.86977 66.9178C4.93658 66.9859 5.0033 67.0046 5.06994 66.9741C5.13658 66.9436 5.20482 66.8676 5.27466 66.7459L7.06827 63.907L4.55908 63.791C4.38057 63.7919 4.23208 63.8196 4.11361 63.8738C3.94332 63.9517 3.83339 64.0738 3.78384 64.24C3.7309 64.3987 3.75346 64.5857 3.85152 64.8009C3.86505 64.8306 3.8496 64.8556 3.80517 64.8759C3.76075 64.8963 3.73346 64.8953 3.72332 64.873L3.46054 64.2669C3.30628 63.8891 3.1835 63.6 3.09221 63.3996C3.03472 63.2734 2.96138 63.1321 2.87219 62.9756L2.68863 62.6023Z" fill="#BB2339"/>
<path d="M3.87614 39.5604C4.05517 38.8856 4.35953 38.369 4.78922 38.0106C5.21086 37.651 5.69561 37.5107 6.24347 37.5897C6.66242 37.6501 7.02314 37.8298 7.32561 38.1289C7.62809 38.428 7.84876 38.81 7.98762 39.2751C8.11843 39.739 8.14503 40.2415 8.06742 40.7825C8.03499 41.0086 7.98583 41.2653 7.91996 41.5525C7.89569 41.6644 7.86736 41.8046 7.83497 41.973C7.80375 42.1333 7.77366 42.3144 7.7447 42.5163L7.63168 43.3901C7.61772 43.5447 7.59105 43.7593 7.55167 44.0338C7.54935 44.05 7.52402 44.0546 7.47568 44.0476C7.42734 44.0407 7.40433 44.0291 7.40665 44.013C7.44024 43.7788 7.445 43.6023 7.42094 43.4834C7.38997 43.3553 7.32157 43.2589 7.21572 43.1942C7.10988 43.1295 6.9361 43.0797 6.6944 43.0449L1.09895 42.2386C0.865306 42.2049 0.68861 42.2042 0.568864 42.2364C0.44222 42.2593 0.350068 42.3285 0.292408 42.4438C0.22785 42.5499 0.178774 42.72 0.145181 42.9542C0.142864 42.9703 0.117535 42.9749 0.0691947 42.968C0.0208541 42.961 -0.00215785 42.9494 0.000158935 42.9333L0.104336 42.2931C0.171419 41.9401 0.220598 41.6546 0.251875 41.4366C0.28431 41.2105 0.305818 40.9745 0.3164 40.7288C0.319927 40.6469 0.329246 40.5246 0.344357 40.3619C0.359468 40.1993 0.375712 40.0574 0.393088 39.9363C0.501976 39.1772 0.718897 38.6109 1.04385 38.2374C1.36996 37.8558 1.7868 37.7016 2.29438 37.7747C2.68111 37.8305 3.01305 38.0102 3.29019 38.3139C3.56734 38.6175 3.76265 39.0331 3.87614 39.5604ZM0.608727 40.1528C0.575134 40.387 0.608364 40.5566 0.708417 40.6617C0.808469 40.7667 1.01157 40.8413 1.31773 40.8855L3.61392 41.2163L3.69725 40.7215C3.7598 40.2854 3.65077 39.9277 3.37014 39.6482C3.08262 39.3595 2.69716 39.1803 2.21375 39.1107C1.75451 39.0445 1.38841 39.103 1.11543 39.2862C0.835546 39.4602 0.666647 39.749 0.608727 40.1528ZM7.77201 40.9501C7.85425 40.3768 7.7735 39.9366 7.52973 39.6295C7.28597 39.3224 6.88613 39.1288 6.33021 39.0486C5.70984 38.9592 5.19637 39.0419 4.78979 39.2965C4.38322 39.5511 4.13417 39.9973 4.04266 40.6353C4.00907 40.8694 3.98701 41.0805 3.97648 41.2686L6.88901 41.6883C7.171 41.7289 7.37592 41.7049 7.50377 41.6162C7.63163 41.5275 7.72104 41.3054 7.77201 40.9501Z" fill="#BB2339"/>
<path d="M10.5809 31.5069C10.5741 31.5217 10.5485 31.519 10.5041 31.4987C10.4597 31.4783 10.4408 31.4607 10.4476 31.4459C10.5524 31.2158 10.6083 31.0441 10.6152 30.9307C10.6256 30.8099 10.5873 30.7072 10.5006 30.6226C10.4138 30.5381 10.2557 30.4433 10.0262 30.3382L4.88404 27.9846C4.66932 27.8863 4.49999 27.8357 4.37604 27.8328C4.24808 27.819 4.14191 27.8556 4.05755 27.9426C3.96579 28.0261 3.87088 28.1755 3.77282 28.3907C3.76606 28.4056 3.73877 28.4065 3.69097 28.3936C3.64654 28.3733 3.6294 28.352 3.63955 28.3297L3.90425 27.7782C4.06784 27.4585 4.19528 27.1984 4.28658 26.9981C4.38802 26.7755 4.5091 26.4901 4.64984 26.1419L4.88726 25.5914C4.89402 25.5766 4.91961 25.5793 4.96404 25.5997C5.00846 25.62 5.02729 25.6376 5.02053 25.6524C4.91909 25.8751 4.86691 26.0485 4.864 26.1727C4.86109 26.2969 4.90301 26.4013 4.98976 26.4859C5.07989 26.563 5.23803 26.6578 5.46417 26.7703L10.5841 29.1138C10.8062 29.2154 10.9776 29.2714 11.0981 29.2818C11.2221 29.2847 11.3299 29.2444 11.4217 29.1608C11.506 29.0739 11.5973 28.9228 11.6953 28.7076C11.7021 28.6928 11.7277 28.6955 11.7721 28.7158C11.8165 28.7362 11.8353 28.7538 11.8286 28.7686C11.7238 28.9986 11.6355 29.1825 11.5639 29.3201L11.1825 30.1276L10.8335 30.923C10.7767 31.0674 10.6925 31.262 10.5809 31.5069Z" fill="#BB2339"/>
<path d="M15.9085 22.4077C15.8925 22.4262 15.8661 22.4194 15.8292 22.3874C15.7922 22.3553 15.7791 22.3331 15.7898 22.3208C16.0137 22.0618 16.1608 21.8604 16.2314 21.7166C16.3072 21.5666 16.3207 21.4326 16.2719 21.3146C16.217 21.1913 16.0972 21.0495 15.9127 20.8893L11.6404 17.179C11.4305 16.9858 11.265 16.8907 11.144 16.8936C11.0169 16.8911 10.8787 16.9762 10.7295 17.1488L10.6255 17.2691C10.4443 17.4787 10.3334 17.744 10.2928 18.065C10.2461 18.3806 10.2722 18.7055 10.371 19.0397C10.4637 19.3685 10.6259 19.6605 10.8577 19.9157C10.87 19.9264 10.8628 19.9471 10.8361 19.9779C10.8201 19.9964 10.8011 20.0123 10.7789 20.0254C10.756 20.0271 10.7441 20.0221 10.7433 20.0106C10.5361 19.7768 9.96404 19.199 9.02695 18.2772C9.0085 18.2612 9.01259 18.2377 9.03925 18.2069C9.05524 18.1884 9.07164 18.1757 9.08845 18.1687C9.11059 18.1555 9.12782 18.1543 9.14012 18.165C9.2693 18.2772 9.45383 18.1945 9.69369 17.9171C10.1439 17.4337 10.6942 16.8159 11.3445 16.0638C11.6376 15.7247 11.9593 15.3401 12.3095 14.9102L12.8599 14.2548C13.0358 14.0513 13.1484 13.89 13.1976 13.7708C13.2468 13.6516 13.2359 13.5396 13.1649 13.4348C13.1571 13.4065 13.1696 13.3796 13.2024 13.3541C13.2344 13.3171 13.26 13.3124 13.2793 13.3399C13.534 13.5935 13.8594 13.9085 14.2556 14.2849C14.6456 14.656 14.914 14.8999 15.0608 15.0166C15.0793 15.0326 15.0725 15.0591 15.0405 15.0961C14.9979 15.1455 14.9643 15.1594 14.9397 15.1381C14.6874 14.919 14.403 14.7746 14.0865 14.7047C13.7752 14.6287 13.4671 14.6364 13.162 14.7276C12.8622 14.8127 12.6111 14.9724 12.4085 15.2067L12.3046 15.3269C12.198 15.4503 12.1361 15.553 12.1188 15.6352C12.107 15.7113 12.1326 15.7875 12.1957 15.8639C12.2528 15.935 12.3616 16.0458 12.5224 16.1962L16.7842 19.8812C16.9749 20.0468 17.1293 20.1485 17.2474 20.1863C17.3708 20.218 17.4985 20.1886 17.6306 20.0981C17.7626 20.0077 17.9432 19.8299 18.1724 19.5648C18.1884 19.5463 18.2149 19.5531 18.2518 19.5852C18.2887 19.6172 18.2992 19.6425 18.2832 19.661C18.0859 19.8891 17.9283 20.0652 17.8102 20.1894L17.0734 21.0229L16.395 21.8263C16.2839 21.9673 16.1217 22.1611 15.9085 22.4077Z" fill="#BB2339"/>
<path d="M26.7685 10.6407C26.7734 10.6182 26.7861 10.6003 26.8066 10.587C26.8272 10.5738 26.8521 10.5674 26.8815 10.5679C26.9064 10.5616 26.9176 10.564 26.9152 10.5753C27.1328 11.0655 27.411 11.5748 27.7498 12.1033C27.785 12.1582 27.8012 12.206 27.7982 12.2467C27.7909 12.2805 27.7564 12.3172 27.6948 12.3569L23.0111 15.3738C22.9837 15.3914 22.9568 15.3797 22.9304 15.3385C22.904 15.2973 22.901 15.2701 22.9216 15.2569C23.127 15.1245 23.2632 15.0126 23.3302 14.9209C23.4041 14.8248 23.4239 14.7199 23.3897 14.6062C23.3623 14.4881 23.2804 14.3226 23.144 14.1099L20.0878 9.34353C19.9558 9.13764 19.8418 8.99768 19.746 8.92365C19.6501 8.84962 19.5433 8.82632 19.4254 8.85376C19.3032 8.87433 19.1462 8.94636 18.9544 9.06986C18.9339 9.08309 18.907 9.07132 18.8737 9.03455C18.8473 8.99338 18.841 8.96838 18.8547 8.95956L23.2816 6.10811C23.3364 6.07283 23.3836 6.08607 23.4232 6.14783L24.315 7.49348C24.3282 7.51407 24.3143 7.53759 24.2732 7.56406C24.239 7.58611 24.214 7.59248 24.1984 7.58316C23.8355 7.27381 23.4296 7.10857 22.9807 7.08743C22.5342 7.05502 22.1021 7.17333 21.6844 7.44238L21.4892 7.56808C21.2769 7.70481 21.1339 7.8212 21.06 7.91727C20.9886 8.00206 20.9656 8.09445 20.991 8.19445C21.0164 8.29445 21.0873 8.44273 21.2037 8.63931L22.5503 10.7394L23.8342 9.91241C24.1834 9.68746 24.4006 9.4603 24.4857 9.23091C24.5708 9.00152 24.5254 8.74957 24.3494 8.47505C24.3318 8.4476 24.3469 8.41843 24.3949 8.38756C24.4428 8.35669 24.4778 8.35841 24.4998 8.39272L24.8526 8.96554C24.8985 9.0523 24.9699 9.17118 25.0667 9.32217C25.2075 9.54178 25.3166 9.70429 25.3938 9.80969L25.7606 10.359C25.7826 10.3933 25.773 10.4237 25.7319 10.4501C25.7114 10.4634 25.6886 10.4732 25.6637 10.4795C25.6412 10.4746 25.6256 10.4653 25.6168 10.4516C25.4275 10.1565 25.1921 9.99298 24.9104 9.96108C24.6311 9.91791 24.3272 10.0022 23.9985 10.2139L22.7351 11.0276L24.2269 13.3542C24.4029 13.6287 24.5584 13.7807 24.6934 13.8101C24.8352 13.8351 25.0431 13.7594 25.317 13.583L25.6046 13.3978C26.0497 13.1111 26.3757 12.7217 26.5827 12.2296C26.7852 11.7306 26.8471 11.201 26.7685 10.6407Z" fill="#BB2339"/>
</svg>
